PathFileType	4	(X/Y/Z)	Patient4_TMGait_0pt7_01_left_20.trc.trc
DataRate	CameraRate	NumFrames	NumMarkers	Units	OrigDataRate	OrigDataStartFrame	OrigNumFrames
87.500000000000	87.500000000000	4	33	mm	87.500000000000	124	       141
Frame#	Time	Sacral			L.Shoulder			Chest			R.Shoulder			Neck			R.ASIS			L.ASIS			R.Thigh.Superior			R.Thigh.Lateral			R.Thigh.Inferior			R.Patella			L.Thigh.Superior			L.Thigh.Lateral			L.Thigh.Inferior			L.Patella			L.Shank.Superior			L.Shank.Lateral			L.Shank.Inferior			R.Shank.Superior			R.Shank.Lateral			R.Shank.Inferior			R.Heel			R.Midfoot.Superior			R.Midfoot.Lateral			R.Toe			L.Heel			L.Midfoot.Lateral			L.Midfoot.Superior			L.Toe			L.Elbow			L.Wrist			R.Elbow			R.Wrist			
		X1	Y1	Z1	X2	Y2	Z2	X3	Y3	Z3	X4	Y4	Z4	X5	Y5	Z5	X6	Y6	Z6	X7	Y7	Z7	X8	Y8	Z8	X9	Y9	Z9	X10	Y10	Z10	X11	Y11	Z11	X12	Y12	Z12	X13	Y13	Z13	X14	Y14	Z14	X15	Y15	Z15	X16	Y16	Z16	X17	Y17	Z17	X18	Y18	Z18	X19	Y19	Z19	X20	Y20	Z20	X21	Y21	Z21	X22	Y22	Z22	X23	Y23	Z23	X24	Y24	Z24	X25	Y25	Z25	X26	Y26	Z26	X27	Y27	Z27	X28	Y28	Z28	X29	Y29	Z29	X30	Y30	Z30	X31	Y31	Z31	X32	Y32	Z32	X33	Y33	Z33	

124	24.365714285714	847.167611122945	1003.566025759894	484.665764537887	1027.309396323386	1419.610208625848	277.913319606825	1145.685703298643	1343.916049132000	425.502607041139	1090.992430794451	1428.479796605468	603.671844304718	1050.925317945007	1479.808129056996	431.347027430309	1075.624689146524	934.767897209647	587.882599550211	1046.977992848700	941.773013075305	313.390844944704	1071.351802860797	721.874679460011	564.908246939680	966.742671731497	629.099276872798	627.697824648184	1024.705688373466	563.102430795454	546.626575792896	1004.737406712818	477.715963574783	550.340844232045	1124.167943517255	767.395911453586	350.008599970320	1077.301064707597	637.077110617572	273.204077186785	1182.476531746836	581.239373632725	333.861777740598	1207.317371507470	513.017473520815	332.375400236923	1188.601058096717	438.841998877661	321.094494080294	1116.679163731696	312.238993264676	270.991259972628	1198.749266406142	209.722700950269	325.850989950412	965.878808711018	393.962117165267	557.570572883627	883.782501383255	300.107032212904	622.466541794648	908.920250219599	201.533601862658	555.244226308036	756.600836449621	43.886182677740	530.358547288677	930.681431139666	96.014255604528	556.969273437417	843.665213757203	36.938221472662	599.922620665517	1051.458149083599	40.496737094959	578.236435819931	1106.347578803762	39.941538297534	365.536789713101	1177.797066061044	39.980715945304	282.792318500872	1255.663972716198	108.587664978631	304.520112542298	1385.925530605775	66.849527066707	273.269612127713	840.678661850246	1123.628874825283	193.783304751695	774.926664528174	874.113440904936	242.248399747644	1283.977671346526	1161.570551103975	705.198415633646	1466.047896127396	1283.829025907533	583.998984027061	
125	24.377142857143	847.392981621233	1001.945165483956	481.344276486325	1026.551083212469	1418.496027719329	275.000284404854	1144.583331334753	1343.657808138390	423.320999487086	1088.264659213226	1428.124924455856	601.112101398503	1049.092761820755	1478.984582230265	428.391485679304	1075.637512979145	933.710494716259	586.044317699122	1048.447437850079	940.575338704420	311.652412093170	1071.749107948693	720.537900154513	563.200926156842	966.712667515780	627.823508577552	625.546048562567	1024.846158791738	561.458546860109	544.758334007030	1004.232414739592	475.335384667640	548.220708814215	1125.715699393945	765.074665572504	348.723155921980	1077.270381814307	635.204029102191	272.866148039424	1182.100081411487	578.950090270463	333.954920623408	1205.408544851113	509.711609009787	333.192746061600	1185.824454123181	435.320477512980	321.714840484216	1111.939371318887	309.996490245894	271.108861740024	1191.166536559765	206.029596804701	327.231151108896	963.832000554220	392.085908291161	555.686297407874	880.306883829069	299.876828072368	621.210878026089	903.224269959659	200.726603986155	554.301482558770	748.639281037224	44.593951065403	530.417648738343	922.915264521610	96.015997388533	556.836460445106	835.722637360056	37.269099801009	600.011260343448	1043.519932988536	40.204064962637	578.340186213067	1094.469357576354	38.834138111742	366.659053485069	1165.980383969585	37.706010588610	283.828756117626	1245.503777815758	104.189733409741	306.380168395802	1375.149496620176	59.436842435692	274.934268019636	839.720669333400	1123.104949070769	190.932006013654	774.477060482971	873.609108803027	241.057548103095	1283.669336132675	1163.925039726571	703.934632609389	1461.823676161943	1290.638793316030	582.037025312675	
126	24.388571428571	847.471714847686	1000.580035561321	478.039226370325	1025.893030508591	1417.515023448678	272.023557873508	1143.568535551249	1343.500687232812	421.083228346267	1085.748905583820	1427.954859640509	598.514662125606	1047.497004518452	1478.356114251895	425.305176750326	1075.602818956873	932.777396915793	584.100327933549	1049.695859528993	939.746248977354	309.850537823988	1072.310061426575	719.418533806058	561.293948800124	967.000401705655	626.657272995216	623.218368288057	1025.430322783380	559.957463295042	542.758053528253	1004.287515873274	472.942965328574	546.068099028326	1127.134984249762	763.260362252438	347.324097405205	1077.459699798264	633.994204273108	272.069177571572	1181.788166875083	577.253222990282	333.789402673570	1203.692578798678	507.111663449148	333.574654017440	1183.362048741037	432.513349774874	321.936905217788	1107.826212442114	308.391839098109	270.644094554710	1184.177800486453	203.123355035936	328.129685986189	962.150899593015	390.314382165991	553.743484308720	877.098716465904	299.894105419896	619.888220994340	897.746966988748	200.147855210060	553.375586573536	740.740234713077	45.757058090590	530.500906101738	915.344134198967	96.103632556505	556.738038764822	827.847859211413	37.797867795301	600.096572464213	1035.643500991673	39.842419049274	578.439416887199	1083.504717135489	38.102377990763	367.249992610470	1155.122560858138	36.127035908526	284.402081711451	1235.919154176280	100.890131328420	307.754847914175	1365.095859477862	53.764924428953	276.219896583276	839.639880878505	1122.048382873610	187.888993749230	775.195877131009	872.440157318726	239.322052818326	1282.607999343044	1165.560358505752	703.079186216979	1457.258761502228	1296.037946619112	580.458347775670	
127	24.400000000000	847.400097638293	999.537006638435	474.781940456647	1025.316035061703	1416.736186062302	269.030980504813	1142.636699439894	1343.479055050742	418.805268756418	1083.515965949870	1428.012204589723	595.901347055366	1046.159000113750	1477.974758535502	422.149303323959	1075.497184133250	932.043727478172	582.013074234233	1050.669758753301	939.343596691665	307.911866478296	1072.952583768930	718.594110499251	559.167799060725	967.557964440201	625.682424297175	620.755655914840	1026.411117900583	558.680863391192	540.677712536001	1004.895067248928	470.618926233288	544.014157982388	1128.356460316307	762.071156218825	345.752371918547	1077.833911869321	633.450766416672	270.811776127210	1181.491218386051	576.158263606693	333.287453761164	1202.150470153305	505.231650125015	333.467058563320	1181.186216440712	430.424455081731	321.764150701741	1104.297427417730	307.405429818315	269.691712549187	1177.800596784969	201.002334858876	328.582703117905	960.823088017397	388.732813392096	551.850530047770	874.127467954176	300.242800576387	618.554037139711	892.511353927634	199.879792663967	552.533771573900	732.934601372168	47.482022483478	530.617342154928	908.010257522668	96.293231158631	556.699390027447	820.056421749288	38.568136570091	600.180268690093	1027.827464839555	39.426128940731	578.526845132258	1073.551667422146	37.705234591952	367.425389422448	1145.291416685570	35.182786156154	284.604547277117	1226.983971457776	98.660528782252	308.661773947066	1355.828354133143	49.823235032645	277.095441757628	840.474532017196	1120.495906210131	184.675013844958	777.124062684518	870.634954551630	237.034662875438	1280.788578425133	1166.426208494160	702.609890166039	1452.435740119216	1299.991607418987	579.264782240640	
